<svg width="17" height="19" viewBox="0 0 17 19" fill="none" xmlns="http://www.w3.org/2000/svg">
<path fill-rule="evenodd" clip-rule="evenodd" d="M8.37923 3.62601C8.53677 3.62601 8.68795 3.56341 8.79935 3.45189C8.91074 3.3405 8.97334 3.18945 8.97334 3.03191V2.18821H9.56744C9.77975 2.18821 9.97588 2.07496 10.082 1.89116C10.1881 1.70736 10.1881 1.48085 10.082 1.29705C9.97588 1.11325 9.77975 1 9.56744 1H7.19102C6.97871 1 6.78258 1.11325 6.67649 1.29705C6.5704 1.48086 6.5704 1.70736 6.67649 1.89116C6.78258 2.07496 6.97871 2.18821 7.19102 2.18821H7.78513V3.03191C7.78513 3.18945 7.84772 3.3405 7.95911 3.45189C8.07051 3.56342 8.22169 3.62601 8.37923 3.62601ZM3.1616 16.3173C1.77791 14.9336 1.00041 13.0567 1.00041 11.0997L1.00024 11.0999C1.00184 9.14336 1.77974 7.26742 3.1633 5.884C4.54671 4.50045 6.42276 3.72254 8.3792 3.72095C10.3361 3.72095 12.213 4.49844 13.5968 5.88213C14.9805 7.26589 15.758 9.14282 15.758 11.0997C15.758 13.0566 14.9805 14.9335 13.5968 16.3173C12.213 17.701 10.3361 18.4785 8.3792 18.4785C6.42228 18.4785 4.54542 17.701 3.1616 16.3173ZM12.7566 6.72237C11.5956 5.56148 10.0211 4.90916 8.3792 4.90916L8.37923 4.90912C6.73791 4.91072 5.16421 5.56345 4.00356 6.72406C2.84292 7.88467 2.19021 9.45837 2.18862 11.0997C2.18862 12.7416 2.84095 14.3161 4.00183 15.4771C5.16282 16.638 6.73736 17.2903 8.3792 17.2903C10.021 17.2903 11.5955 16.638 12.7566 15.4771C13.9174 14.3161 14.5698 12.7416 14.5698 11.0997C14.5698 9.4579 13.9174 7.88338 12.7566 6.72237ZM16.2478 7.38251C16.1394 7.48011 15.9988 7.53435 15.853 7.53501C15.667 7.54111 15.4889 7.45982 15.3719 7.31514H15.3717L13.9875 5.3843C13.8736 5.21218 13.8573 4.99323 13.9443 4.80598C14.0314 4.61873 14.2094 4.49022 14.4146 4.46635C14.6196 4.44262 14.8223 4.52696 14.95 4.68927L16.3342 6.59639C16.4188 6.71506 16.4568 6.86093 16.4408 7.00588C16.4249 7.15083 16.3561 7.2849 16.2478 7.38251ZM6.22598 14.1916C6.1094 14.2728 5.96258 14.3172 5.81114 14.3169L5.81113 14.317C5.63218 14.3172 5.46092 14.2552 5.33826 14.1458C5.21545 14.0362 5.1521 13.8888 5.16309 13.7386C5.17408 13.5884 5.25856 13.4488 5.39641 13.3527L8.02739 11.5169V7.37094C8.02739 7.17626 8.15092 6.99642 8.3514 6.89913C8.55188 6.80185 8.79894 6.80185 8.99942 6.89913C9.1999 6.99642 9.32343 7.17626 9.32343 7.37094V12.0125L6.22598 14.1916Z" fill="#FC223B"/>
<path d="M8.79935 3.45189L8.62257 3.27511L8.62247 3.27522L8.79935 3.45189ZM8.97334 2.18821V1.93821H8.72334V2.18821H8.97334ZM10.082 1.89116L9.86545 1.76618L9.86545 1.76618L10.082 1.89116ZM10.082 1.29705L9.86545 1.42203L9.86545 1.42203L10.082 1.29705ZM6.67649 1.29705L6.45997 1.17208V1.17208L6.67649 1.29705ZM6.67649 1.89116L6.45997 2.01613L6.45997 2.01613L6.67649 1.89116ZM7.78513 2.18821H8.03513V1.93821H7.78513V2.18821ZM7.95911 3.45189L8.136 3.27522L8.13589 3.27511L7.95911 3.45189ZM1.00041 11.0997H1.25041V10.4962L0.823637 10.923L1.00041 11.0997ZM3.1616 16.3173L2.98482 16.4941L2.98483 16.4941L3.1616 16.3173ZM1.00024 11.0999L0.750244 11.0997L0.749751 11.7039L1.17702 11.2767L1.00024 11.0999ZM3.1633 5.884L3.34006 6.06078L3.34008 6.06077L3.1633 5.884ZM8.3792 3.72095V3.47095H8.379L8.3792 3.72095ZM13.5968 5.88213L13.7736 5.70536L13.7736 5.70535L13.5968 5.88213ZM13.5968 16.3173L13.7736 16.4941L13.7736 16.4941L13.5968 16.3173ZM8.3792 4.90916L8.20429 4.73053L7.76654 5.15916H8.3792V4.90916ZM12.7566 6.72237L12.9334 6.5456L12.9333 6.54558L12.7566 6.72237ZM8.37923 4.90912L8.55414 5.08775L8.9925 4.65853L8.37899 4.65912L8.37923 4.90912ZM4.00356 6.72406L3.82679 6.54728L4.00356 6.72406ZM2.18862 11.0997L1.93862 11.0995V11.0997H2.18862ZM4.00183 15.4771L3.82505 15.6539L3.82506 15.6539L4.00183 15.4771ZM12.7566 15.4771L12.9333 15.6539L12.9333 15.6539L12.7566 15.4771ZM15.853 7.53501L15.8518 7.28491L15.8448 7.28515L15.853 7.53501ZM15.3719 7.31514L15.5662 7.15786L15.4911 7.06514H15.3719V7.31514ZM15.3717 7.31514L15.1685 7.4608L15.2433 7.56514H15.3717V7.31514ZM13.9875 5.3843L13.7789 5.52237L13.7843 5.52996L13.9875 5.3843ZM13.9443 4.80598L13.7176 4.70049L13.7176 4.70064L13.9443 4.80598ZM14.4146 4.46635L14.3858 4.21801L14.3857 4.21803L14.4146 4.46635ZM14.95 4.68927L15.1525 4.54232L15.1465 4.53469L14.95 4.68927ZM16.3342 6.59639L16.5378 6.45125L16.5366 6.44954L16.3342 6.59639ZM16.4408 7.00588L16.1923 6.97859L16.1923 6.9786L16.4408 7.00588ZM5.81114 14.3169L5.81154 14.0669L5.60987 14.0666L5.56688 14.2636L5.81114 14.3169ZM6.22598 14.1916L6.3689 14.3967L6.36983 14.396L6.22598 14.1916ZM5.81113 14.317L5.81146 14.567L6.01252 14.5667L6.05538 14.3703L5.81113 14.317ZM5.33826 14.1458L5.5047 13.9592L5.50469 13.9592L5.33826 14.1458ZM5.16309 13.7386L5.41242 13.7569L5.41242 13.7569L5.16309 13.7386ZM5.39641 13.3527L5.53934 13.5578L5.53947 13.5577L5.39641 13.3527ZM8.02739 11.5169L8.17045 11.7219L8.27739 11.6473V11.5169H8.02739ZM8.99942 6.89913L9.10856 6.67421H9.10856L8.99942 6.89913ZM9.32343 12.0125L9.46728 12.2169L9.57343 12.1422V12.0125H9.32343ZM8.62247 3.27522C8.55801 3.33975 8.47048 3.37601 8.37923 3.37601V3.87601C8.60306 3.87601 8.8179 3.78708 8.97623 3.62856L8.62247 3.27522ZM8.72334 3.03191C8.72334 3.12311 8.6871 3.21058 8.62257 3.27511L8.97613 3.62867C9.13438 3.47041 9.22334 3.25578 9.22334 3.03191H8.72334ZM8.72334 2.18821V3.03191H9.22334V2.18821H8.72334ZM9.56744 1.93821H8.97334V2.43821H9.56744V1.93821ZM9.86545 1.76618C9.80402 1.8726 9.69045 1.93821 9.56744 1.93821V2.43821C9.86906 2.43821 10.1477 2.27732 10.2985 2.01613L9.86545 1.76618ZM9.86545 1.42203C9.9269 1.52849 9.9269 1.65972 9.86545 1.76618L10.2985 2.01613C10.4492 1.75499 10.4492 1.43321 10.2985 1.17208L9.86545 1.42203ZM9.56744 1.25C9.69044 1.25 9.80402 1.31561 9.86545 1.42203L10.2985 1.17208C10.1477 0.910897 9.86905 0.75 9.56744 0.75V1.25ZM7.19102 1.25H9.56744V0.75H7.19102V1.25ZM6.89301 1.42203C6.95444 1.31561 7.06801 1.25 7.19102 1.25V0.75C6.8894 0.75 6.61073 0.910893 6.45997 1.17208L6.89301 1.42203ZM6.89301 1.76618C6.83156 1.65972 6.83156 1.52849 6.89301 1.42203L6.45997 1.17208C6.30924 1.43322 6.30924 1.755 6.45997 2.01613L6.89301 1.76618ZM7.19102 1.93821C7.06802 1.93821 6.95444 1.8726 6.89301 1.76618L6.45997 2.01613C6.61073 2.27731 6.88941 2.43821 7.19102 2.43821V1.93821ZM7.78513 1.93821H7.19102V2.43821H7.78513V1.93821ZM8.03513 3.03191V2.18821H7.53513V3.03191H8.03513ZM8.13589 3.27511C8.07136 3.21058 8.03513 3.12312 8.03513 3.03191H7.53513C7.53513 3.25578 7.62408 3.47041 7.78234 3.62867L8.13589 3.27511ZM8.37923 3.37601C8.28797 3.37601 8.20045 3.33975 8.136 3.27522L7.78223 3.62856C7.94057 3.78709 8.1554 3.87601 8.37923 3.87601V3.37601ZM0.750414 11.0997C0.750414 13.123 1.55425 15.0635 2.98482 16.4941L3.33838 16.1406C2.00157 14.8037 1.25041 12.9904 1.25041 11.0997H0.750414ZM1.17702 11.2767L1.17719 11.2765L0.823637 10.923L0.823467 10.9231L1.17702 11.2767ZM2.98653 5.70721C1.55613 7.13747 0.751894 9.07693 0.750244 11.0997L1.25024 11.1001C1.25179 9.2098 2.00336 7.39736 3.34006 6.06078L2.98653 5.70721ZM8.379 3.47095C6.35633 3.47259 4.41677 4.27683 2.98651 5.70723L3.34008 6.06077C4.67666 4.72406 6.48919 3.97248 8.3794 3.97095L8.379 3.47095ZM13.7736 5.70535C12.3429 4.27479 10.4024 3.47095 8.3792 3.47095V3.97095C10.2698 3.97095 12.0831 4.7221 13.42 6.05892L13.7736 5.70535ZM16.008 11.0997C16.008 9.07651 15.2041 7.13599 13.7736 5.70536L13.42 6.0589C14.7568 7.39578 15.508 9.20913 15.508 11.0997H16.008ZM13.7736 16.4941C15.2041 15.0634 16.008 13.123 16.008 11.0997H15.508C15.508 12.9903 14.7568 14.8036 13.42 16.1406L13.7736 16.4941ZM8.3792 18.7285C10.4024 18.7285 12.3429 17.9247 13.7736 16.4941L13.42 16.1406C12.0832 17.4774 10.2698 18.2285 8.3792 18.2285V18.7285ZM2.98483 16.4941C4.41553 17.9247 6.35597 18.7285 8.3792 18.7285V18.2285C6.4886 18.2285 4.67531 17.4774 3.33837 16.1405L2.98483 16.4941ZM8.3792 5.15916C9.95475 5.15916 11.4657 5.78514 12.5798 6.89915L12.9333 6.54558C11.7255 5.33783 10.0874 4.65916 8.3792 4.65916V5.15916ZM8.20433 4.7305L8.20429 4.73053L8.5541 5.08778L8.55414 5.08775L8.20433 4.7305ZM4.18034 6.90084C5.29416 5.78706 6.80437 5.16065 8.37948 5.15912L8.37899 4.65912C6.67144 4.66078 5.03426 5.33985 3.82679 6.54728L4.18034 6.90084ZM2.43862 11.1C2.44015 9.52483 3.06652 8.01462 4.18034 6.90084L3.82679 6.54728C2.61932 7.75472 1.94028 9.39191 1.93862 11.0995L2.43862 11.1ZM4.17862 15.3003C3.0646 14.1862 2.43862 12.6752 2.43862 11.0997H1.93862C1.93862 12.8079 2.6173 14.446 3.82505 15.6539L4.17862 15.3003ZM8.3792 17.0403C6.80368 17.0403 5.29271 16.4143 4.1786 15.3003L3.82506 15.6539C5.03292 16.8616 6.67105 17.5403 8.3792 17.5403V17.0403ZM12.5798 15.3003C11.4657 16.4143 9.95471 17.0403 8.3792 17.0403V17.5403C10.0874 17.5403 11.7254 16.8616 12.9333 15.6539L12.5798 15.3003ZM14.3198 11.0997C14.3198 12.6753 13.6938 14.1862 12.5798 15.3003L12.9333 15.6539C14.1411 14.446 14.8198 12.8079 14.8198 11.0997H14.3198ZM12.5798 6.89913C13.6938 8.01328 14.3198 9.52422 14.3198 11.0997H14.8198C14.8198 9.39158 14.1411 7.75349 12.9334 6.5456L12.5798 6.89913ZM15.8541 7.78501C16.0613 7.78407 16.261 7.70705 16.4151 7.56825L16.0804 7.19676C16.0178 7.25317 15.9364 7.28463 15.8518 7.28501L15.8541 7.78501ZM15.1775 7.47242C15.344 7.67806 15.5971 7.79354 15.8612 7.78488L15.8448 7.28515C15.737 7.28868 15.6339 7.24158 15.5662 7.15786L15.1775 7.47242ZM15.3717 7.56514H15.3719V7.06514H15.3717V7.56514ZM13.7843 5.52996L15.1685 7.4608L15.5749 7.16948L14.1907 5.23864L13.7843 5.52996ZM13.7176 4.70064C13.594 4.96655 13.6171 5.27762 13.779 5.52227L14.196 5.24632C14.1301 5.14673 14.1206 5.0199 14.171 4.91131L13.7176 4.70064ZM14.3857 4.21803C14.0943 4.25193 13.8414 4.43449 13.7176 4.70049L14.1709 4.91146C14.2214 4.80296 14.3245 4.72851 14.4434 4.71468L14.3857 4.21803ZM15.1465 4.53469C14.9651 4.30411 14.677 4.18429 14.3858 4.21801L14.4433 4.71469C14.5621 4.70094 14.6796 4.74981 14.7535 4.84386L15.1465 4.53469ZM16.5366 6.44954L15.1524 4.54243L14.7477 4.83612L16.1319 6.74324L16.5366 6.44954ZM16.6894 7.03316C16.712 6.82731 16.6581 6.62004 16.5378 6.45126L16.1307 6.74151C16.1795 6.81007 16.2016 6.89455 16.1923 6.97859L16.6894 7.03316ZM16.4151 7.56825C16.5689 7.42969 16.6667 7.23926 16.6894 7.03316L16.1923 6.9786C16.1831 7.0624 16.1433 7.14012 16.0804 7.19676L16.4151 7.56825ZM5.81074 14.5669C6.00989 14.5673 6.20746 14.5092 6.3689 14.3967L6.08306 13.9864C6.01134 14.0364 5.91527 14.0671 5.81154 14.0669L5.81074 14.5669ZM6.05538 14.3703L6.05539 14.3702L5.56688 14.2636L5.56687 14.2637L6.05538 14.3703ZM5.17182 14.3323C5.34459 14.4865 5.5769 14.5673 5.81146 14.567L5.81079 14.067C5.68746 14.0672 5.57725 14.024 5.5047 13.9592L5.17182 14.3323ZM4.91376 13.7204C4.89652 13.9558 4.99721 14.1765 5.17183 14.3323L5.50469 13.9592C5.4337 13.8959 5.40767 13.8218 5.41242 13.7569L4.91376 13.7204ZM5.25347 13.1476C5.06198 13.281 4.93094 13.4856 4.91376 13.7204L5.41242 13.7569C5.41723 13.6911 5.45513 13.6165 5.53934 13.5578L5.25347 13.1476ZM7.88434 11.3118L5.25335 13.1477L5.53947 13.5577L8.17045 11.7219L7.88434 11.3118ZM7.77739 7.37094V11.5169H8.27739V7.37094H7.77739ZM8.24226 6.67422C7.97109 6.8058 7.77739 7.06444 7.77739 7.37094H8.27739C8.27739 7.28809 8.33076 7.18703 8.46054 7.12405L8.24226 6.67422ZM9.10856 6.67421C8.83916 6.54349 8.51166 6.54349 8.24226 6.67422L8.46054 7.12405C8.5921 7.06021 8.75872 7.06021 8.89028 7.12405L9.10856 6.67421ZM9.57343 7.37094C9.57343 7.06443 9.37974 6.8058 9.10856 6.67421L8.89028 7.12405C9.02007 7.18703 9.07343 7.28808 9.07343 7.37094H9.57343ZM9.57343 12.0125V7.37094H9.07343V12.0125H9.57343ZM6.36983 14.396L9.46728 12.2169L9.17958 11.808L6.08213 13.9871L6.36983 14.396Z" fill="#FC223B"/>
</svg>
